<svg width="18" height="20" viewBox="0 0 18 20" fill="none" xmlns="http://www.w3.org/2000/svg">
<path d="M17.437 6.82173C17.3388 6.87744 15.0005 8.0531 15.0005 10.6598C15.1107 13.6326 17.9513 14.6752 18 14.6752C17.9513 14.7309 17.5712 16.0954 16.4452 17.5257C15.5515 18.7578 14.5597 20 13.0536 20C11.6209 20 11.1066 19.1788 9.45357 19.1788C7.67832 19.1788 7.17601 20 5.81683 20C4.3107 20 3.24539 18.6912 2.30307 17.4707C1.07884 15.8732 0.0382858 13.3664 0.00155101 10.9593C-0.023205 9.68384 0.246716 8.43004 0.931899 7.36507C1.89898 5.87831 3.62552 4.86905 5.51097 4.83577C6.95561 4.79164 8.24132 5.73434 9.12296 5.73434C9.96786 5.73434 11.5475 4.83577 13.3347 4.83577C14.1061 4.83649 16.1633 5.04703 17.437 6.82173ZM9.00078 4.5811C8.74363 3.41629 9.45357 2.25148 10.1148 1.50846C10.9597 0.609897 12.2941 0 13.4449 0C13.5184 1.16481 13.0528 2.30719 12.2207 3.1392C11.474 4.03777 10.1883 4.71422 9.00078 4.5811Z" fill="white"/>
</svg>
