<svg width="24" height="24" viewBox="0 0 24 24" fill="none" xmlns="http://www.w3.org/2000/svg">
<path fill-rule="evenodd" clip-rule="evenodd" d="M15.3853 15.3834C13.6038 17.1634 11.5399 18.8668 10.724 18.0511C9.55704 16.8844 8.83681 15.8672 6.26199 17.9364C3.68831 20.0043 5.66556 21.3837 6.79654 22.5134C8.10195 23.8185 12.968 22.5831 17.7778 17.7755C22.5864 12.9667 23.8187 8.1016 22.5121 6.79645C21.3811 5.66458 20.0082 3.68885 17.9398 6.26202C15.8703 8.83519 16.8865 9.55527 18.0557 10.7232C18.8682 11.5389 17.1656 13.6024 15.3853 15.3834Z" fill="white"/>
<path opacity="0.5" d="M7 14C7 10.134 10.134 7 14 7" stroke="white" stroke-width="2"/>
<path opacity="0.5" d="M2 14C2 7.37258 7.37258 2 14 2" stroke="white" stroke-width="2"/>
</svg>
