<svg width="13" height="13" viewBox="0 0 13 13" fill="none" xmlns="http://www.w3.org/2000/svg">
<path fill-rule="evenodd" clip-rule="evenodd" d="M8.22173 3.78279C7.68871 3.24917 7.68871 2.38343 8.22173 1.84981L9.67186 0.400218C10.2055 -0.133406 11.0712 -0.133406 11.6048 0.400218L12.3996 1.19504C13.0898 1.88526 13.1967 2.96138 12.659 3.77511C10.3491 7.2676 7.26738 10.3494 3.77499 12.6594C2.96247 13.1966 1.88343 13.0896 1.19559 12.4005L0.400206 11.6051C-0.133403 11.0715 -0.133403 10.2058 0.400206 9.67215L1.84975 8.22256C2.38277 7.68835 3.24848 7.68835 3.78268 8.22256L4.26546 8.70537C5.85506 7.40292 7.4027 5.85524 8.70511 4.265L8.22173 3.78279Z" fill="#63C74D"/>
</svg>
