<svg width="24" height="24" viewBox="0 0 24 24" fill="none" xmlns="http://www.w3.org/2000/svg">
<path fill-rule="evenodd" clip-rule="evenodd" d="M12 6C12.5523 6 13 6.44772 13 7V21C13 21.5523 12.5523 22 12 22C11.4477 22 11 21.5523 11 21V7C11 6.44772 11.4477 6 12 6Z" fill="#63C74D"/>
<path fill-rule="evenodd" clip-rule="evenodd" d="M2 2C2.55228 2 3 2.44772 3 3V18C3 18.5523 2.55228 19 2 19C1.44772 19 1 18.5523 1 18V3C1 2.44772 1.44772 2 2 2Z" fill="#63C74D"/>
<path fill-rule="evenodd" clip-rule="evenodd" d="M22 2C22.5523 2 23 2.44772 23 3V18C23 18.5523 22.5523 19 22 19C21.4477 19 21 18.5523 21 18V3C21 2.44772 21.4477 2 22 2Z" fill="#63C74D"/>
<path fill-rule="evenodd" clip-rule="evenodd" d="M21.9998 3.00016L22.2323 2.02758C22.7695 2.156 23.1008 2.69556 22.9724 3.2327C22.844 3.76961 22.3049 4.10089 21.7679 3.97292L21.7592 3.97093C21.7498 3.96881 21.7337 3.96527 21.7114 3.96057C21.6667 3.95119 21.5972 3.93724 21.5055 3.92091C21.322 3.88821 21.0513 3.84623 20.7161 3.81216C20.0423 3.74369 19.1263 3.70916 18.1423 3.83743C16.1786 4.09343 14.0594 4.97071 12.9047 7.42572C12.6696 7.92548 12.0739 8.14007 11.5742 7.90501C11.0744 7.66995 10.8598 7.07425 11.0949 6.57449C12.6422 3.28467 15.523 2.16197 17.8838 1.85421C19.0621 1.7006 20.1394 1.74325 20.9183 1.82241C21.3096 1.86217 21.6302 1.91162 21.8563 1.95191C21.9695 1.97207 22.0593 1.99 22.1229 2.00337C22.1547 2.01005 22.18 2.01561 22.1983 2.01974L22.2206 2.02483L22.2278 2.02651L22.2304 2.02712L22.2314 2.02737C22.2319 2.02748 22.2323 2.02758 21.9998 3.00016ZM21.7691 3.97319L21.7685 3.97305L21.7683 3.97301C21.769 3.97317 21.7693 3.97323 21.7691 3.97319Z" fill="#63C74D"/>
<path fill-rule="evenodd" clip-rule="evenodd" d="M2.00018 18.0001L1.81461 17.0175C1.27192 17.12 0.915063 17.643 1.01755 18.1857C1.12 18.7282 1.64269 19.085 2.18518 18.9829C2.18473 18.983 2.18537 18.9828 2.18518 18.9829L2.19525 18.9811C2.20492 18.9793 2.22098 18.9765 2.24309 18.9729C2.28733 18.9655 2.3557 18.9547 2.44557 18.9421C2.62546 18.9169 2.89051 18.8845 3.21967 18.8581C3.88054 18.8051 4.78667 18.7775 5.77414 18.8751C7.78469 19.0738 9.92343 19.7669 11.1794 21.5715C11.4949 22.0248 12.1181 22.1365 12.5714 21.821C13.0247 21.5055 13.1364 20.8823 12.821 20.429C11.0698 17.9129 8.20851 17.1059 5.97085 16.8848C4.83422 16.7724 3.80419 16.8049 3.05993 16.8645C2.68653 16.8944 2.38176 16.9315 2.16749 16.9615C2.06027 16.9766 1.97547 16.9899 1.91581 16.9998C1.88597 17.0048 1.86239 17.0089 1.84542 17.0119L1.82494 17.0156L1.8185 17.0168L1.81623 17.0172C1.81585 17.0173 1.81461 17.0175 2.00018 18.0001Z" fill="#63C74D"/>
<path fill-rule="evenodd" clip-rule="evenodd" d="M21.9998 18.0001L22.1854 17.0175C22.7281 17.12 23.0849 17.643 22.9824 18.1857C22.88 18.7282 22.3573 19.085 21.8148 18.9829C21.8153 18.983 21.8146 18.9828 21.8148 18.9829L21.8048 18.9811C21.7951 18.9793 21.779 18.9765 21.7569 18.9729C21.7127 18.9655 21.6443 18.9547 21.5544 18.9421C21.3745 18.9169 21.1095 18.8845 20.7803 18.8581C20.1195 18.8051 19.2133 18.7775 18.2259 18.8751C16.2153 19.0738 14.0766 19.7669 12.8206 21.5715C12.5051 22.0248 11.8819 22.1365 11.4286 21.821C10.9753 21.5055 10.8636 20.8823 11.179 20.429C12.9302 17.9129 15.7915 17.1059 18.0291 16.8848C19.1658 16.7724 20.1958 16.8049 20.9401 16.8645C21.3135 16.8944 21.6182 16.9315 21.8325 16.9615C21.9397 16.9766 22.0245 16.9899 22.0842 16.9998C22.114 17.0048 22.1376 17.0089 22.1546 17.0119L22.1751 17.0156L22.1815 17.0168L22.1838 17.0172C22.1841 17.0173 22.1854 17.0175 21.9998 18.0001Z" fill="#63C74D"/>
<path fill-rule="evenodd" clip-rule="evenodd" d="M2.00023 3.00017L1.77004 2.02702C1.23258 2.15415 0.89995 2.69291 1.02708 3.23036C1.15415 3.76757 1.69247 4.10014 2.22967 3.97349L2.22909 3.97363L2.22839 3.97379C2.22813 3.97385 2.22828 3.97382 2.22884 3.97369L2.22967 3.97349L2.23706 3.97184C2.24574 3.96991 2.26077 3.96664 2.28182 3.96229C2.32393 3.95359 2.39 3.9406 2.47739 3.92545C2.65239 3.89509 2.91159 3.85627 3.23412 3.82564C3.88222 3.76411 4.7695 3.7373 5.73509 3.87064C7.65862 4.13626 9.8119 5.01688 11.1175 7.46997C11.3769 7.95751 11.9825 8.14239 12.47 7.88292C12.9576 7.62345 13.1425 7.01788 12.883 6.53034C11.1796 3.32977 8.33291 2.21039 6.00867 1.88944C4.85037 1.72949 3.80183 1.76275 3.04507 1.8346C2.66517 1.87067 2.35469 1.91687 2.13561 1.95487C2.02596 1.97388 1.93889 1.9909 1.87713 2.00366C1.84624 2.01005 1.82164 2.01537 1.80369 2.01936L1.78177 2.0243L1.77461 2.02595L1.772 2.02656L1.77094 2.02681C1.77047 2.02692 1.77004 2.02702 2.00023 3.00017Z" fill="#63C74D"/>
<path d="M2 3L7 3.5L12 6.5V20L7 18H2V3Z" fill="#63C74D"/>
<path d="M22 3L17 3.5L12 6.5V20L17 18H22V3Z" fill="#63C74D"/>
<rect x="11" y="3" width="2" height="15" rx="1" fill="white"/>
</svg>
