<svg width="18" height="18" viewBox="0 0 18 18" fill="none" xmlns="http://www.w3.org/2000/svg">
<path fill-rule="evenodd" clip-rule="evenodd" d="M0.947368 18C0.663158 18 0.473684 17.9053 0.284211 17.7158C0.0947369 17.5263 0 17.1474 0 16.8632L0.947368 12.1263C0.947368 11.9368 1.04211 11.7474 1.23158 11.6526L12.6 0.284211C12.9789 -0.0947368 13.5474 -0.0947368 13.9263 0.284211L17.7158 4.07368C18.0947 4.45263 18.0947 5.02105 17.7158 5.4L6.34737 16.7684C6.25263 16.8632 6.06316 16.9579 5.87368 17.0526L1.13684 18C1.04211 18 1.04211 18 0.947368 18ZM2.74737 12.7893L2.17895 15.8209L5.21053 15.2525L15.7263 4.73667L13.2632 2.27351L2.74737 12.7893Z" fill="#B1B7BE"/>
</svg>
