<svg width="21" height="21" viewBox="0 0 21 21" fill="none" xmlns="http://www.w3.org/2000/svg">
<path d="M21 9.36037C21 10.5811 20.805 11.6994 20.4149 12.7152C20.0248 13.7226 19.4743 14.5079 18.7635 15.0713C18.0613 15.6348 17.2464 15.9165 16.3189 15.9165C15.6341 15.9165 15.0402 15.7372 14.5375 15.3787C14.0347 15.0201 13.6966 14.5335 13.5232 13.9189H13.3672C12.9424 14.5848 12.418 15.0841 11.7938 15.4171C11.1697 15.75 10.4675 15.9165 9.68731 15.9165C8.2743 15.9165 7.16037 15.4683 6.34551 14.572C5.53932 13.6756 5.13622 12.4634 5.13622 10.9354C5.13622 9.17683 5.67368 7.75122 6.74861 6.65854C7.82353 5.55732 9.26687 5.00671 11.0786 5.00671C11.7375 5.00671 12.4656 5.06646 13.2632 5.18598C14.0694 5.29695 14.7845 5.45488 15.4087 5.65976L15.1226 11.614V11.9213C15.1226 13.2872 15.5734 13.9701 16.4749 13.9701C17.1598 13.9701 17.7015 13.5348 18.1003 12.664C18.5077 11.7933 18.7115 10.6835 18.7115 9.33476C18.7115 7.875 18.4081 6.59451 17.8012 5.49329C17.1944 4.38354 16.3319 3.52988 15.2136 2.93232C14.0954 2.33476 12.8124 2.03598 11.3647 2.03598C9.51827 2.03598 7.91022 2.41159 6.54056 3.1628C5.17957 3.91402 4.13932 4.98963 3.41981 6.38963C2.70031 7.7811 2.34056 9.39878 2.34056 11.2427C2.34056 13.7183 3.01238 15.622 4.35604 16.9537C5.69969 18.2854 7.62848 18.9512 10.1424 18.9512C12.0582 18.9512 14.0563 18.5671 16.1368 17.7988V19.8988C14.3164 20.6329 12.3356 21 10.1944 21C6.987 21 4.48607 20.1506 2.69164 18.4518C0.897214 16.7445 0 14.3671 0 11.3195C0 9.09146 0.485449 7.11098 1.45635 5.37805C2.42724 3.63659 3.7709 2.30488 5.48731 1.38293C7.21238 0.460976 9.16285 0 11.3387 0C13.2198 0 14.8929 0.384146 16.3579 1.15244C17.8316 1.92073 18.9715 3.01768 19.7777 4.44329C20.5926 5.86037 21 7.49939 21 9.36037ZM7.63282 10.9866C7.63282 12.9756 8.42601 13.9701 10.0124 13.9701C11.6854 13.9701 12.6 12.7195 12.756 10.2183L12.9121 7.15793C12.3659 7.0128 11.7808 6.94024 11.1567 6.94024C10.0471 6.94024 9.18019 7.30305 8.55604 8.02866C7.94056 8.75427 7.63282 9.74024 7.63282 10.9866Z" fill="#4A90E2"/>
</svg>
