<svg width="21" height="20" viewBox="0 0 21 20" fill="none" xmlns="http://www.w3.org/2000/svg">
<path d="M0 10.0058C0 14.9531 3.6132 19.0666 8.33814 19.9004L8.33836 19.8453C8.34891 17.0883 8.33836 12.7856 8.33836 12.7856H5.83691V10.0062H8.33836V7.78274C8.33836 5.28129 9.9504 3.8916 12.2295 3.8916C12.9521 3.8916 13.7304 4.00278 14.453 4.11395V6.67098H13.1745C11.9516 6.67098 11.6736 7.28245 11.6736 8.06067V10.0062H14.3418L13.8971 12.7856H11.6736V19.8453L11.6734 19.9004C16.3983 19.0666 20.0115 14.9531 20.0115 10.0058C20.0115 4.5026 15.5089 0 10.0058 0C4.5026 0 0 4.5026 0 10.0058Z" fill="white"/>
</svg>
