<svg width="24" height="24" viewBox="0 0 24 24" fill="none" xmlns="http://www.w3.org/2000/svg">
<path fill-rule="evenodd" clip-rule="evenodd" d="M21.4839 3.63562C19.2572 1.45479 15.6474 1.45479 13.4212 3.63562L12.0768 4.95184L10.7327 3.63609C8.506 1.45526 4.89622 1.45526 2.67001 3.63609C0.443329 5.81668 0.443329 9.35212 2.67001 11.5329L4.01367 12.8485L12.0768 20.7456L20.14 12.8485L21.4836 11.5329C23.7105 9.35212 23.7105 5.81645 21.4839 3.63562ZM17.4522 12.8489L12.0768 18.1136L6.70147 12.8489L4.01415 10.217C2.52985 8.76323 2.52985 6.40604 4.01415 4.95184C5.49892 3.49811 7.9052 3.49811 9.3895 4.95184L12.0768 7.58428L14.7646 4.95184C16.2489 3.49811 18.6557 3.49811 20.14 4.95184C21.6243 6.40604 21.6243 8.76276 20.14 10.217L17.4522 12.8489Z" fill="#63C74D"/>
</svg>
