<svg width="20" height="20" viewBox="0 0 20 20" fill="none" xmlns="http://www.w3.org/2000/svg">
<path d="M14.1048 5.47274C13.0473 4.48183 11.7022 3.97728 10.2041 3.97728C7.54639 3.97728 5.29685 5.73637 4.49444 8.10001C4.29036 8.70002 4.1744 9.34094 4.1744 10C4.1744 10.6591 4.29035 11.3 4.49442 11.9C5.29683 14.2636 7.54639 16.0227 10.2041 16.0227C11.577 16.0227 12.7458 15.6682 13.6596 15.0682C14.7402 14.3591 15.4592 13.3 15.6957 12.05H10.2041V8.18185H19.8145C19.9351 8.83639 20 9.51821 20 10.2273C20 13.2728 18.8868 15.8364 16.9573 17.5773C15.269 19.1046 12.9592 20 10.2041 20C6.21523 20 2.76441 17.7591 1.08536 14.4909C0.394269 13.1409 0 11.6137 0 10C0 8.38639 0.394249 6.85912 1.08534 5.50912C2.76438 2.24093 6.21522 0 10.2041 0C12.9546 0 15.2644 0.990911 17.0315 2.60455L14.1048 5.47274Z" fill="white"/>
</svg>
