<svg width="24" height="24" viewBox="0 0 24 24" fill="none" xmlns="http://www.w3.org/2000/svg">
<circle cx="12.1538" cy="12.1538" r="10.1538" stroke="#63C74D" stroke-width="2"/>
<path fill-rule="evenodd" clip-rule="evenodd" d="M11.1998 17.382C11.1998 18.7279 13.3764 18.7112 13.3764 17.382V17.0995C13.3764 15.7703 11.1998 15.7537 11.1998 17.0995V17.382ZM8.57454 8.526C8.02623 9.62262 9.62131 10.6528 10.3192 9.62262C10.7678 8.87493 11.3659 8.67554 12.0638 8.67554C12.7948 8.67554 13.5259 9.24047 13.5259 9.97154C13.5259 10.9685 12.9278 11.3506 11.9142 11.7162C11.5155 11.8657 11.1998 12.1648 11.1998 12.7629C11.1998 13.6435 11.1998 12.5968 11.1998 14.1919C11.1998 15.6042 13.3099 15.5211 13.3099 14.1919V13.3278C15.0545 12.63 15.769 11.0349 15.6195 9.65585C15.4533 8.01093 14.1407 6.61523 12.0638 6.61523C9.90377 6.61523 9.1727 7.62877 8.57454 8.526Z" fill="#63C74D"/>
</svg>
