<svg width="24" height="24" viewBox="0 0 24 24" fill="none" xmlns="http://www.w3.org/2000/svg">
<path fill-rule="evenodd" clip-rule="evenodd" d="M10.2609 14.6087C10.2609 14.6087 8.95652 14.1739 8.95652 12C8.23826 12 8.23826 10.2609 8.95652 10.2609C8.95652 9.96956 7.65217 6.78261 9.82609 7.21739C10.2609 5.47826 15.0435 5.47826 15.4783 7.21739C15.78 8.42435 15.0435 10.047 15.0435 10.2609C15.7617 10.2609 15.7617 12 15.0435 12C15.0435 14.1739 13.7391 14.6087 13.7391 14.6087V16.7826C15.893 17.5904 18.0261 18.2583 19.1183 19.0217C20.8991 17.2165 22 14.7365 22 12C22 6.47652 17.5235 2 12 2C6.47652 2 2 6.47652 2 12C2 14.7417 3.10435 17.2252 4.8913 19.0322C6.04783 18.2322 8.32783 17.5139 10.2609 16.7826V14.6087Z" stroke="#63C74D" stroke-width="2" stroke-linecap="round" stroke-linejoin="round"/>
<path d="M4.89156 19.0322C6.7046 20.8643 9.21938 22 12.0003 22C14.7855 22 17.3046 20.86 19.1185 19.0217" stroke="#63C74D" stroke-width="2" stroke-linecap="round" stroke-linejoin="round"/>
</svg>
