<svg width="25" height="24" viewBox="0 0 25 24" fill="none" xmlns="http://www.w3.org/2000/svg">
<path fill-rule="evenodd" clip-rule="evenodd" d="M10.7609 14.6087C10.7609 14.6087 9.45652 14.1739 9.45652 12C8.73826 12 8.73826 10.2609 9.45652 10.2609C9.45652 9.96956 8.15217 6.78261 10.3261 7.21739C10.7609 5.47826 15.5435 5.47826 15.9783 7.21739C16.28 8.42435 15.5435 10.047 15.5435 10.2609C16.2617 10.2609 16.2617 12 15.5435 12C15.5435 14.1739 14.2391 14.6087 14.2391 14.6087V16.7826C16.393 17.5904 18.5261 18.2583 19.6183 19.0217C21.3991 17.2165 22.5 14.7365 22.5 12C22.5 6.47652 18.0235 2 12.5 2C6.97652 2 2.5 6.47652 2.5 12C2.5 14.7417 3.60435 17.2252 5.3913 19.0322C6.54783 18.2322 8.82783 17.5139 10.7609 16.7826V14.6087Z" stroke="#63C74D" stroke-width="2" stroke-linecap="round" stroke-linejoin="round"/>
<path d="M5.3916 19.0322C7.20465 20.8643 9.71943 22 12.5003 22C15.2855 22 17.8046 20.86 19.6186 19.0217" stroke="#63C74D" stroke-width="2" stroke-linecap="round" stroke-linejoin="round"/>
</svg>
