<svg width="24" height="24" viewBox="0 0 24 24" fill="none" xmlns="http://www.w3.org/2000/svg">
<path fill-rule="evenodd" clip-rule="evenodd" d="M22.7281 12.4045C22.0417 10.5112 20.1256 9.38096 17.6011 9.38096C17.5021 9.38096 17.4075 9.38318 17.3129 9.38761L17.2953 7.09946C17.2953 7.09946 21.0462 6.44729 21.1727 6.42622C21.2992 6.40514 21.319 6.29423 21.2926 6.17001C21.2673 6.04689 21.1089 5.19064 21.0858 5.08749C21.0561 4.94219 20.9736 4.94663 20.8581 4.96659C20.7437 4.98656 17.2832 5.47791 17.2832 5.47791C17.2832 5.47791 17.27 3.31176 17.2689 3.17312C17.2678 3.03448 17.193 2.99788 17.0555 3.00009C16.918 3.00231 16.0436 3.01562 15.9281 3.01784C15.8126 3.02006 15.7477 3.07219 15.7499 3.18199C15.7521 3.29291 15.7862 5.74077 15.7862 5.74077C15.7862 5.74077 12.4192 6.32529 12.3279 6.34303C12.2355 6.35856 12.1409 6.40182 12.1618 6.50164C12.1827 6.60146 12.3708 7.71504 12.3906 7.80155C12.4104 7.89028 12.4698 7.94463 12.5974 7.92023C12.7239 7.89915 15.8137 7.36122 15.8137 7.36122L15.8522 9.59946C14.6675 9.91113 13.8711 10.5134 13.3706 11.0447C12.5259 11.9397 12.043 13.1376 12.043 14.331C12.043 16.0901 13.111 17.136 14.6037 17.3202C18.0818 17.7494 20.2345 13.9262 20.9494 12.0906C22.1561 13.7609 21.231 16.9198 18.6461 18.7232C18.5988 18.7554 18.5383 18.8663 18.6098 18.9528C18.6813 19.0393 19.2049 19.6871 19.2907 19.7913C19.3787 19.8978 19.5173 19.8568 19.5723 19.8168C22.3332 17.898 23.5993 14.8091 22.7281 12.4045ZM14.6032 15.9403C13.5406 15.8061 13.5648 14.9266 13.5648 14.3288C13.5648 13.4714 13.9245 12.5763 14.5284 11.9375C14.8969 11.5448 15.3534 11.2487 15.8803 11.0513L15.9705 15.795C15.547 15.9403 15.0916 16.0002 14.6032 15.9403ZM17.2726 15.3269L17.3232 10.7694C17.4156 10.765 17.5058 10.7583 17.6004 10.7583C18.4507 10.7583 19.2438 10.9191 19.6739 11.1587C20.1039 11.3994 18.5486 14.1678 17.2726 15.3269ZM7.42813 6.82234C7.39514 6.71809 7.31484 6.66152 7.21254 6.66152H5.0676C4.9653 6.66152 4.8861 6.71809 4.8542 6.82124C4.40102 8.262 1.0263 19.0107 1.00871 19.0672C0.990006 19.1238 0.996606 19.1515 1.0769 19.1515H2.98315C3.06565 19.1515 3.09205 19.126 3.10855 19.0717C3.12505 19.0151 4.21732 15.3915 4.21732 15.3915H8.06282C8.06282 15.3915 9.15399 19.0162 9.17159 19.0717C9.18919 19.126 9.21449 19.1515 9.29589 19.1515H11.2032C11.2824 19.1515 11.289 19.1238 11.2714 19.0672C11.256 19.0118 7.88022 8.26311 7.42813 6.82234ZM4.54895 13.8297L6.14061 8.00675L7.73227 13.8297H4.54895Z" fill="#63C74D"/>
</svg>
