<svg width="16" height="16" viewBox="0 0 16 16" fill="none" xmlns="http://www.w3.org/2000/svg">
<rect width="16" height="16" rx="4" fill="#FFCC00"/>
<path fill-rule="evenodd" clip-rule="evenodd" d="M9.16664 2.0217C9.05175 1.9732 8.91675 2.0082 8.84368 2.10469L3.54932 9.10426C3.49214 9.18025 3.48367 9.28025 3.5292 9.36424C3.5742 9.44674 3.66527 9.49973 3.7648 9.49973H7.66992L6.68305 13.695C6.65552 13.811 6.71853 13.9295 6.83341 13.978C6.94777 14.0275 7.08437 13.991 7.15637 13.895L12.4507 6.8954C12.5084 6.8199 12.5159 6.71941 12.4709 6.63591C12.4253 6.55192 12.3343 6.49992 12.2353 6.49992H8.3296L9.317 2.30418C9.34453 2.18819 9.281 2.0702 9.16664 2.0217Z" fill="white"/>
</svg>
