<svg width="16" height="16" viewBox="0 0 16 16" fill="none" xmlns="http://www.w3.org/2000/svg">
<rect width="16" height="16" rx="4" fill="#FF1431"/>
<path fill-rule="evenodd" clip-rule="evenodd" d="M13 7.31472C13 6.84491 12.61 6.46285 12.1304 6.46285H8.93087C9.05565 5.96195 9.30435 4.87965 9.30435 4.21349C9.30435 3.37993 8.79565 3 8.32348 3C7.8913 3 7.56522 3.29815 7.56522 3.69427C7.56522 5.5769 5.9613 6.88878 4.52174 6.88878H3.21739C3.09739 6.88878 3 6.98419 3 7.10175V10.9352C3 11.0527 3.09739 11.1481 3.21739 11.1481C5.21 11.1481 5.8913 11.4348 6.43913 11.6652C6.8487 11.8377 7.23478 12 8 12H10.8261C11.3057 12 11.6957 11.6179 11.6957 11.1481C11.6957 10.9726 11.6413 10.8099 11.5483 10.6745C11.887 10.5578 12.1304 10.2413 12.1304 9.87033C12.1304 9.69484 12.0761 9.53213 11.983 9.39669C12.3217 9.27998 12.5652 8.96351 12.5652 8.59252C12.5652 8.41704 12.5109 8.25433 12.4178 8.11888C12.7565 8.00218 13 7.68571 13 7.31472Z" fill="white"/>
</svg>
