<svg width="8" height="7" viewBox="0 0 8 7" fill="none" xmlns="http://www.w3.org/2000/svg">
<path fill-rule="evenodd" clip-rule="evenodd" d="M8 3.35589C8 2.99049 7.688 2.69333 7.30435 2.69333H4.7447C4.84452 2.30374 5.04348 1.46195 5.04348 0.943824C5.04348 0.295504 4.63652 0 4.25878 0C3.91304 0 3.65217 0.231898 3.65217 0.539991C3.65217 2.00426 2.36904 3.02461 1.21739 3.02461H0.173913C0.077913 3.02461 0 3.09882 0 3.19025V6.17179C0 6.26323 0.077913 6.33743 0.173913 6.33743C1.768 6.33743 2.31304 6.56039 2.7513 6.73961C3.07896 6.87378 3.38783 7 4 7H6.26087C6.64452 7 6.95652 6.70284 6.95652 6.33743C6.95652 6.20095 6.91304 6.0744 6.83861 5.96905C7.10957 5.87828 7.30435 5.63213 7.30435 5.34359C7.30435 5.2071 7.26087 5.08055 7.18643 4.9752C7.45739 4.88443 7.65217 4.63829 7.65217 4.34974C7.65217 4.21325 7.6087 4.0867 7.53426 3.98135C7.80522 3.89058 8 3.64444 8 3.35589Z" fill="white"/>
</svg>
