<svg xmlns="http://www.w3.org/2000/svg" width="28" height="28" viewBox="0 0 28 28">
  <path fill="#00ab2d" stroke="#00ab2d" stroke-width=".5" d="M8,9.5 C7.172,9.5 6.5,8.828 6.5,8 C6.5,7.172 7.172,6.5 8,6.5 C8.828,6.5 9.5,7.172 9.5,8 C9.5,8.828 8.828,9.5 8,9.5 L8,9.5 Z M8,5 C6.34325,5 5,6.34325 5,8 C5,9.65675 6.34325,11 8,11 C9.65675,11 11,9.65675 11,8 C11,6.34325 9.65675,5 8,5 L8,5 Z M24.5,14.846 L20,10.25 L12.54425,17.83325 L9.5,14.75 L3.5,20.25275 L3.5,5 C3.5,4.172 4.172,3.5 5,3.5 L23,3.5 C23.828,3.5 24.5,4.172 24.5,5 L24.5,14.846 L24.5,14.846 Z M24.5,23 C24.5,23.828 23.828,24.5 23,24.5 L19.124,24.5 L13.598,18.90125 L20,12.49925 L24.5,16.99925 L24.5,23 L24.5,23 Z M5,24.5 C4.172,24.5 3.5,23.828 3.5,23 L3.5,22.29575 L9.45875,16.95875 L17.00075,24.5 L5,24.5 L5,24.5 Z M23,2 L5,2 C3.34325,2 2,3.34325 2,5 L2,23 C2,24.65675 3.34325,26 5,26 L23,26 C24.65675,26 26,24.65675 26,23 L26,5 C26,3.34325 24.65675,2 23,2 L23,2 Z"/>
</svg>
