<svg width="26" height="26" viewBox="0 0 26 26" fill="none" xmlns="http://www.w3.org/2000/svg">
<rect width="26" height="26" fill="white"/>
<path fill-rule="evenodd" clip-rule="evenodd" d="M19.2 25H4.8C2.7 25 1 23.3 1 21.2V6.8C1 4.7 2.7 3 4.8 3H12C12.6 3 13 3.4 13 4C13 4.6 12.6 5 12 5H4.8C3.8 5 3 5.8 3 6.8V21.1C3 22.1 3.8 22.9 4.8 22.9H19.1C20.1 22.9 20.9 22.1 20.9 21.1V14C20.9 13.4 21.3 13 21.9 13C22.5 13 22.9 13.4 22.9 14V21.2C23 23.3 21.3 25 19.2 25Z" fill="#B1B7BE"/>
<path fill-rule="evenodd" clip-rule="evenodd" d="M7 20C6.7 20 6.5 19.9 6.3 19.7C6.1 19.5 6 19.1 6 18.8L7 13.8C7 13.6 7.1 13.4 7.3 13.3L19.3 1.3C19.7 0.9 20.3 0.9 20.7 1.3L24.7 5.3C25.1 5.7 25.1 6.3 24.7 6.7L12.7 18.7C12.6 18.8 12.4 18.9 12.2 19L7.2 20C7.1 20 7.1 20 7 20ZM8.9 14.5L8.3 17.7L11.5 17.1L22.6 6L20 3.4L8.9 14.5Z" fill="#B1B7BE"/>
</svg>
