<svg width="24" height="24" viewBox="0 0 24 24" fill="none" xmlns="http://www.w3.org/2000/svg">
<rect width="24" height="24" fill="white"/>
<path d="M7.57256 19.9999H4.82902C4.34394 19.9999 3.87872 19.8102 3.53571 19.4727C3.1927 19.1351 3 18.6773 3 18.1999V11.8999C3 11.4226 3.1927 10.9647 3.53571 10.6272C3.87872 10.2896 4.34394 10.0999 4.82902 10.0999H7.57256M13.9741 8.29996V4.69998C13.9741 3.9839 13.6851 3.29715 13.1706 2.79081C12.6561 2.28446 11.9582 2 11.2306 2L7.57256 10.0999V19.9999H17.8882C18.3293 20.0048 18.7574 19.8527 19.0935 19.5715C19.4296 19.2903 19.6511 18.8991 19.7173 18.4699L20.9793 10.3699C21.0191 10.112 21.0014 9.84856 20.9275 9.59798C20.8535 9.34739 20.7251 9.11562 20.5512 8.91872C20.3772 8.72182 20.1618 8.5645 19.9199 8.45765C19.678 8.35081 19.4154 8.29701 19.1503 8.29996H13.9741Z" stroke="#BCBCBC" stroke-width="2" stroke-linecap="round" stroke-linejoin="round"/>
</svg>
