<svg width="12" height="11" viewBox="0 0 12 11" fill="none" xmlns="http://www.w3.org/2000/svg">
<path fill-rule="evenodd" clip-rule="evenodd" d="M6.21126 8.79197C6.08191 8.71152 5.91809 8.71152 5.78874 8.79197L3.30896 10.3343C3.00417 10.5239 2.62327 10.2472 2.70938 9.89872L3.40996 7.06369C3.4465 6.91581 3.39588 6.76001 3.27939 6.66185L1.04622 4.78005C0.771749 4.54876 0.91724 4.10099 1.27524 4.0752L4.18801 3.86542C4.33994 3.85448 4.47247 3.75819 4.52983 3.61707L5.62944 0.911694C5.76459 0.579181 6.23541 0.579181 6.37056 0.911694L7.47017 3.61707C7.52753 3.75819 7.66006 3.85448 7.81199 3.86542L10.7248 4.0752C11.0828 4.10099 11.2283 4.54876 10.9538 4.78005L8.72061 6.66185C8.60412 6.76001 8.5535 6.91581 8.59004 7.06369L9.29062 9.89872C9.37673 10.2472 8.99583 10.5239 8.69104 10.3343L6.21126 8.79197Z" fill="#D8D8D8"/>
</svg>
