<svg width="24" height="28" viewBox="0 0 24 28" fill="none" xmlns="http://www.w3.org/2000/svg">
<path d="M14.1213 12.8787C15.2929 14.0503 15.2929 15.9497 14.1213 17.1213C12.9497 18.2929 11.0503 18.2929 9.87868 17.1213C8.70711 15.9497 8.70711 14.0503 9.87868 12.8787C11.0503 11.7071 12.9497 11.7071 14.1213 12.8787Z" fill="#63C74D"/>
<path fill-rule="evenodd" clip-rule="evenodd" d="M3 0C1.34315 0 0 1.34315 0 3V25C0 26.6569 1.34315 28 3 28H21C22.6569 28 24 26.6569 24 25V10.0909L13.5851 0H3ZM17.6 10.4H15.2667L13.4 9H10.6L8.73333 10.4H6.4C5.63 10.4 5 11.21 5 12.2V18.2C5 19.19 5.63 20 6.4 20H17.6C18.37 20 19 19.19 19 18.2V12.2C19 11.21 18.37 10.4 17.6 10.4Z" fill="#63C74D"/>
</svg>
