<svg width="25" height="24" viewBox="0 0 25 24" fill="none" xmlns="http://www.w3.org/2000/svg">
<path d="M4.12374 4.74583L14.527 7.3433C15.7799 7.65635 16.8043 8.96878 16.8043 10.2609V19.6522C16.8043 20.9435 15.776 21.7574 14.5191 21.4616L5.78522 19.408C4.52835 19.1114 3.5 17.813 3.5 16.5217V6.34783C3.5 5.05574 4.55652 4 5.84783 4H19.1522C20.4435 4 21.5 5.05574 21.5 6.34783V14.9565C21.5 16.2478 20.4435 17.3043 19.1522 17.3043H16.8043" stroke="#BDBDBD" stroke-width="2" stroke-linecap="round" stroke-linejoin="round"/>
<path fill-rule="evenodd" clip-rule="evenodd" d="M13.2825 15.7391C14.1469 15.7391 14.8477 15.0383 14.8477 14.1739C14.8477 13.3094 14.1469 12.6086 13.2825 12.6086C12.4181 12.6086 11.7173 13.3094 11.7173 14.1739C11.7173 15.0383 12.4181 15.7391 13.2825 15.7391Z" fill="#BDBDBD"/>
</svg>
